<svg xmlns="http://www.w3.org/2000/svg" viewBox="0 0 506.01 36.76"><defs><style>.cls-1{fill:#4d4c4f;}.cls-2{fill:#08c4fb;}</style></defs><title>Asset 1</title><g id="Layer_2" data-name="Layer 2"><g id="图层_1" data-name="图层 1"><path class="cls-1" d="M121.7,3.79h14.16L138.44,6V14.5L133,18.21l2.8,3,3.6-3.63L144,21.77l-3.86,4.05.91.95H144V33h-6.32l-2.08-2.38L133.29,33H121.7l-2.54-2.2V20l3.56-2.65-3.56-3.82V6ZM131.24,10h-4.47v2l1.7,1.85,2.76-2Zm-.76,16.66.8-.8-3.6-4.09-.91.61v4.28Z"/><path class="cls-2" d="M0,5.72V0H6.7V5.72ZM0,29.56V5.72H6.7V29.56Z"/><path class="cls-2" d="M9.08,29.56V7.84h7V9.43l1.7-1.59h8.59l1.14,1.55s0-.08.15-.23l.42-.53q.26-.34.57-.8h8.06l2.08,2V29.56H31.76v-16H27.44v16H20.33v-16h-4.2v16Z"/><path class="cls-2" d="M41,27.6V18l2.08-2.08h9.58V13.36H48.11V15H41.53V9.8l1.59-2H57.88l1.82,2V29.56H52.62V28l-1.55,1.55H43Zm11.7-7.27H47.88v3.9h4.85Z"/><path class="cls-2" d="M61.89,27.6V9.88l2.08-2h7.87l1.51,1.51V7.84h7V34.67l-2.08,2.08H62.38V31.27h10.9V28l-1.44,1.51H64Zm11.43-14H69V23.81h4.32Z"/><path class="cls-2" d="M82.56,27.6V9.88l2.08-2H99.29l2.08,2V22H89.48v1.85h11.66v5.72H84.64ZM94.22,13.21H89.48V17h4.73Z"/><path class="cls-1" d="M158.18,4h7.68l3.29,23.13h0L172.3,4h7.61L174,33.16h-9.92Z"/><path class="cls-1" d="M180.82,9.31V3.6h6.7V9.31Zm0,23.85V11.43h6.7V33.16Z"/><path class="cls-1" d="M189.9,31.19V26.31l7-.49v1.85h4.54V25.55q-3.18-.95-5.91-1.85l-5.6-1.85V13.48l2.08-2h14.27l2,2v4.88l-7.08.49V16.69h-4.47v2.08q3.18.95,5.92,1.85l5.62,1.86v8.71l-2,2H192Z"/><path class="cls-1" d="M229,11.43V33.16h-7.12V31.65l-1.51,1.51h-7.72l-2.12-2V11.43h7.08v16h4.32v-16Z"/><path class="cls-1" d="M231.16,31.19V21.61l2.08-2.08h9.58V17h-4.58v1.63h-6.59V13.4l1.59-2H248l1.82,2V33.16h-7.08V31.61l-1.55,1.55h-8.1Zm11.7-7.27H238v3.9h4.84Z"/><path class="cls-1" d="M254.1,33.16l-2.08-2V4h7v24h1.21v5.22Z"/><path class="cls-1" d="M270.72,33.16V4h11.36l3.75,18.89h0L289.34,4H301V33.16h-6.7V11.09h0l-5,22.07h-6.89l-5-22.07h0V33.16Z"/><path class="cls-1" d="M303.23,31.19V13.48l2.08-2H320l2.08,2V25.59H310.16v1.85h11.66v5.72h-16.5Zm11.66-14.38h-4.73v3.82h4.73Z"/><path class="cls-1" d="M324,31.19V21.61l2.08-2.08h9.58V17h-4.58v1.63h-6.59V13.4l1.59-2h14.76l1.82,2V33.16h-7.08V31.61L334,33.16h-8.1Zm11.7-7.27h-4.84v3.9h4.84Z"/><path class="cls-1" d="M344.83,31.19V26.31l7-.49v1.85h4.54V25.55q-3.18-.95-5.91-1.85l-5.6-1.85V13.48l2.08-2h14.27l2,2v4.88l-7.08.49V16.69h-4.47v2.08q3.18.95,5.92,1.85l5.62,1.86v8.71l-2,2H347Z"/><path class="cls-1" d="M383.9,11.43V33.16h-7.12V31.65l-1.51,1.51h-7.72l-2.12-2V11.43h7.08v16h4.31v-16Z"/><path class="cls-1" d="M386.09,33.16V11.43h7.12V13l1.51-1.55h4v5.64h-5.56V33.16Z"/><path class="cls-1" d="M399.95,31.19V13.48l2.08-2h14.65l2.08,2V25.59H406.87v1.85h11.66v5.72H402ZM411.6,16.81h-4.73v3.82h4.73Z"/><path class="cls-1" d="M420.69,33.16V11.43h7V13l1.7-1.59H438L439.16,13s0-.08.15-.23.27-.33.42-.53.37-.49.57-.8h8.06l2.08,2V33.16h-7.08v-16H439v16h-7.12v-16h-4.2v16Z"/><path class="cls-1" d="M452.68,31.19V13.48l2.08-2h14.65l2.08,2V25.59H459.6v1.85h11.66v5.72h-16.5Zm11.66-14.38H459.6v3.82h4.73Z"/><path class="cls-1" d="M473.42,33.16V11.43h7.12v1.51L482,11.43h7.72l2.12,2V33.16h-7.08v-16H480.5v16Z"/><path class="cls-1" d="M493.41,11.43h1.93v-5h7v5H506v5.72H502.3V27.25H506v5.9h-8.78l-2-2v-14h-1.85Z"/></g></g></svg>