<svg xmlns="http://www.w3.org/2000/svg" viewBox="0 0 131.07 32.71"><defs><style>.cls-1{fill:#4d4c4f;}.cls-2{fill:#fff;}</style></defs><title>matrice</title><g id="Layer_2" data-name="Layer 2"><g id="图层_1" data-name="图层 1"><path class="cls-1" d="M83.09,5.72V0h6.7V5.72Zm0,23.85V7.84h6.7V29.56Z"/><path class="cls-1" d="M0,29.7V.7H11.62l3.84,19h0L19.07.7H31v29H24V7.7h.88l-5.28,22H12.32L7,7.7H7v22Z"/><path class="cls-1" d="M32.38,27.73V17.55l2-1.85h10v-3h-5v2h-6v-5l1.57-2H49.58l1.8,2v20h-7V28.15L42.77,29.7H34.38Zm12-8h-5v4h5Z"/><path class="cls-1" d="M68.5,29.56V7.84h7.12V9.39l1.51-1.55h4v5.64H75.58V29.56Z"/><path class="cls-1" d="M113.09,27.6V9.88l2-2h14l2,2V22H119.71v1.85h11.15v5.72H115.08Zm11.66-14.38H120V17h4.73Z"/><path class="cls-1" d="M53.44,8.7h2v-5h7v5h4v5h-4v10h4v6h-9l-2-2v-13h-2Z"/><path class="cls-1" d="M92.1,27.6V9.88l2.08-2h14.65l2.08,2V22H99v1.85h11.66v5.72H94.18Zm11.66-14.38H99V17h4.73Z"/><rect class="cls-2" x="98.98" y="13.21" width="13.33" height="11.13"/><rect class="cls-1" x="105.64" y="22.82" width="5.04" height="5.04"/><rect class="cls-1" x="105.87" y="10" width="5.04" height="5.04"/><rect class="cls-2" x="109.09" y="27.99" width="3.91" height="3.91" transform="translate(11.35 87.29) rotate(-45)"/></g></g></svg>