<?xml version="1.0" encoding="utf-8"?>
<!-- Generator: Adobe Illustrator 21.1.0, SVG Export Plug-In . SVG Version: 6.00 Build 0)  -->
<svg version="1.1" id="Layer_1" xmlns="http://www.w3.org/2000/svg" xmlns:xlink="http://www.w3.org/1999/xlink" x="0px" y="0px"
	 viewBox="0 0 76 20" style="enable-background:new 0 0 76 20;" xml:space="preserve">
<style type="text/css">
	.st0{clip-path:url(#SVGID_2_);}
	.st1{fill:#555555;}
	.st2{fill:#FE7D37;}
	.st3{fill:url(#SVGID_3_);}
	.st4{enable-background:new    ;}
	.st5{fill:#010101;}
	.st6{font-family:'Verdana';}
	.st7{font-size:11px;}
	.st8{fill:#FFFFFF;}
	.st9{fill:none;}
	.st10{letter-spacing:1;}
</style>
<g>
	<defs>
		<path id="SVGID_1_" d="M3,0h70c1.7,0,3,1.3,3,3v14c0,1.7-1.3,3-3,3H3c-1.7,0-3-1.3-3-3V3C0,1.3,1.3,0,3,0z"/>
	</defs>
	<clipPath id="SVGID_2_">
		<use xlink:href="#SVGID_1_"  style="overflow:visible;"/>
	</clipPath>
	<g class="st0">
		<path class="st1" d="M0,0h41v20H0V0z"/>
		<path class="st2" d="M41,0h35v20H41V0z"/>
		
			<linearGradient id="SVGID_3_" gradientUnits="userSpaceOnUse" x1="-255.0921" y1="410.34" x2="-255.0921" y2="409.34" gradientTransform="matrix(76 0 0 -20 19425 8206.7998)">
			<stop  offset="0" style="stop-color:#BBBBBB;stop-opacity:0.1"/>
			<stop  offset="1" style="stop-color:#000000;stop-opacity:0.1"/>
		</linearGradient>
		<path class="st3" d="M0,0h76v20H0V0z"/>
	</g>
</g>
<g>
	<g id="v1.00" class="st4">
		<text transform="matrix(1 0 0 1 5.7544 15.0004)" class="st5 st6 st7">v1.00</text>
	</g>
	<text transform="matrix(1 0 0 1 5.7544 14.0004)" class="st8 st6 st7">v1.00</text>
	<g class="st4">
		<rect x="45.3" y="5.5" class="st9" width="25" height="12.8"/>
		<text transform="matrix(1 0 0 1 45.3267 15.0004)"><tspan x="0" y="0" class="st5 st6 st7 st10">SZ</tspan><tspan x="18.9" y="0" class="st5 st6 st7">L</tspan></text>
	</g>
	<rect x="45.3" y="4.5" class="st9" width="25" height="12.8"/>
	<text transform="matrix(1 0 0 1 45.3267 14.0004)" class="st4"><tspan x="0" y="0" class="st8 st6 st7 st10">SZ</tspan><tspan x="18.9" y="0" class="st8 st6 st7">L</tspan></text>
</g>
</svg>
